HIERARCHY
ROOT Hips
{
	OFFSET -0.001795 -0.223333 0.028219
	CHANNELS 6 Xposition Yposition Zposition Zrotation Yrotation Xrotation 
	JOINT LeftUpLeg
	{
		OFFSET 0.069520 -0.091406 -0.006815
		CHANNELS 3 Zrotation Yrotation Xrotation
		JOINT LeftLeg
		{
			OFFSET 0.034277 -0.375199 -0.004496
			CHANNELS 3 Zrotation Yrotation Xrotation
			JOINT LeftFoot
			{
				OFFSET -0.013596 -0.397961 -0.043693
				CHANNELS 3 Zrotation Yrotation Xrotation
				JOINT LeftToe
				{
					OFFSET 0.026358 -0.055791 0.119288
					CHANNELS 3 Zrotation Yrotation Xrotation
					End Site
					{
						OFFSET 0.000000 0.000000 0.000000
					}
				}
			}
		}
	}
	JOINT RightUpLeg
	{
		OFFSET -0.067670 -0.090522 -0.004320
		CHANNELS 3 Zrotation Yrotation Xrotation
		JOINT RightLeg
		{
			OFFSET -0.038290 -0.382569 -0.008850
			CHANNELS 3 Zrotation Yrotation Xrotation
			JOINT RightFoot
			{
				OFFSET 0.015774 -0.398415 -0.042312
				CHANNELS 3 Zrotation Yrotation Xrotation
				JOINT RightToe
				{
					OFFSET -0.025372 -0.048144 0.123348
					CHANNELS 3 Zrotation Yrotation Xrotation
					End Site
					{
						OFFSET 0.000000 0.000000 0.000000
					}
				}
			}
		}
	}
	JOINT Spine
	{
		OFFSET -0.002533 0.108963 -0.026696
		CHANNELS 3 Zrotation Yrotation Xrotation
		JOINT Spine1
		{
			OFFSET 0.005487 0.135180 0.001092
			CHANNELS 3 Zrotation Yrotation Xrotation
			JOINT Spine2
			{
				OFFSET 0.001457 0.052922 0.025425
				CHANNELS 3 Zrotation Yrotation Xrotation
				JOINT Neck
				{
					OFFSET -0.002778 0.213870 -0.042857
					CHANNELS 3 Zrotation Yrotation Xrotation
					JOINT Head
					{
						OFFSET 0.005152 0.064970 0.051349
						CHANNELS 3 Zrotation Yrotation Xrotation
						End Site
						{
							OFFSET 0.000000 0.000000 0.000000
						}
					}
				}
				JOINT LeftShoulder
				{
					OFFSET 0.078845 0.121749 -0.034090
					CHANNELS 3 Zrotation Yrotation Xrotation
					JOINT LeftArm
					{
						OFFSET 0.090977 0.030469 -0.008868
						CHANNELS 3 Zrotation Yrotation Xrotation
						JOINT LeftForeArm
						{
							OFFSET 0.259612 -0.012772 -0.027456
							CHANNELS 3 Zrotation Yrotation Xrotation
							JOINT LeftHand
							{
								OFFSET 0.249234 0.008986 -0.001171
								CHANNELS 3 Zrotation Yrotation Xrotation
								End Site
								{
									OFFSET 0.000000 0.000000 0.000000
								}
							}
						}
					}
				}
				JOINT RightShoulder
				{
					OFFSET -0.081759 0.118833 -0.038615
					CHANNELS 3 Zrotation Yrotation Xrotation
					JOINT RightArm
					{
						OFFSET -0.096012 0.032551 -0.009143
						CHANNELS 3 Zrotation Yrotation Xrotation
						JOINT RightForeArm
						{
							OFFSET -0.253742 -0.013329 -0.021401
							CHANNELS 3 Zrotation Yrotation Xrotation
							JOINT RightHand
							{
								OFFSET -0.255298 0.007772 -0.005559
								CHANNELS 3 Zrotation Yrotation Xrotation
								End Site
								{
									OFFSET 0.000000 0.000000 0.000000
								}
							}
						}
					}
				}
			}
		}
	}
}
MOTION
Frames: 11
Frame Time: 0.050000
0.000000 0.910754 0.000000 -0.185706 0.761308 -12.620786 -3.105587 -1.712056 -13.818383 -2.259653 -0.270494 28.042375 4.515992 11.601993 10.165948 0.000000 0.000000 0.000000 -3.475347 0.360161 -5.362542 -0.424237 2.983192 60.107188 4.070330 5.139216 7.953019 0.000000 0.000000 0.000000 -7.563904 0.342479 21.938232 11.673298 -3.339620 -18.249809 -0.763986 5.312435 25.782941 3.520320 -1.633469 -8.584782 0.000000 0.000000 0.000000 -27.959796 5.455336 -7.235910 -49.294002 16.690437 -14.159870 -6.576709 -25.472006 2.568940 0.000000 0.000000 0.000000 20.510689 1.145934 1.036419 52.731235 -9.188672 -11.842167 4.751295 29.037212 2.843147 0.000000 0.000000 0.000000 
-0.015233 0.897745 -0.062791 -0.547762 1.079930 -12.119020 -0.292934 -1.743693 -17.814222 -3.909230 0.297116 27.312077 2.795004 8.547475 9.085756 0.000000 0.000000 0.000000 -2.538389 0.191940 -2.590727 -1.578144 4.139355 66.543072 8.469246 4.430210 24.724027 0.000000 0.000000 0.000000 -8.180699 0.357629 19.496601 13.130833 -4.245396 -15.339746 0.525602 7.074149 23.607897 2.825572 -0.428310 -11.114139 0.000000 0.000000 0.000000 -26.554381 6.171801 -8.126742 -48.802957 20.772281 -15.219930 -10.727400 -22.558243 2.934708 0.000000 0.000000 0.000000 18.422843 -0.173305 0.553154 54.419114 -12.235169 -13.005900 8.811944 32.320100 4.449787 0.000000 0.000000 0.000000 
-0.030738 0.890220 -0.130691 0.803760 2.283809 -12.390715 -1.270923 -1.883132 -17.316186 -3.509782 0.173314 20.633109 2.474434 8.089102 9.056457 0.000000 0.000000 0.000000 -2.949781 -0.519648 6.516990 -1.893371 3.321938 57.060777 8.460535 5.339451 23.145203 0.000000 0.000000 0.000000 -5.276435 -0.088003 17.374488 9.364555 -3.247637 -12.068405 -0.546205 4.487425 22.148416 1.054686 0.787576 -12.234121 0.000000 0.000000 0.000000 -27.674955 6.789026 -8.199805 -46.325144 22.229611 -14.852840 -8.438903 -23.787158 2.689731 0.000000 0.000000 0.000000 18.472910 1.820555 1.187923 54.126951 -11.560636 -12.554260 6.985576 31.510385 3.651646 0.000000 0.000000 0.000000 
-0.048194 0.888577 -0.205701 1.343324 1.912228 -12.557631 -1.172405 -2.019355 -18.695481 -2.744334 0.142881 11.649417 2.680964 11.055677 21.025667 0.000000 0.000000 0.000000 -1.047500 -0.949858 10.149558 -4.048594 4.304623 49.823170 7.195406 5.929393 17.849355 0.000000 0.000000 0.000000 -4.623601 -0.158696 19.508190 11.341166 -3.624400 -15.206774 -2.830890 6.962891 23.147561 0.540316 1.282435 -9.780491 0.000000 0.000000 0.000000 -28.203414 9.720766 -10.976231 -45.074341 24.306508 -15.088685 -9.132920 -25.363220 2.927474 0.000000 0.000000 0.000000 20.483091 0.787641 1.295146 50.370687 -11.649236 -12.071829 10.250283 30.916221 4.542074 0.000000 0.000000 0.000000 
-0.066656 0.889917 -0.284896 1.845859 1.807382 -11.338625 -0.125132 -2.029194 -20.619749 -3.650876 0.381217 4.920642 2.368833 11.008737 23.039249 0.000000 0.000000 0.000000 1.113606 -1.095505 9.831365 -4.445946 3.883050 42.409723 2.185348 2.120683 6.089882 0.000000 0.000000 0.000000 -2.392858 -0.489475 20.870143 9.386569 -2.701071 -16.809305 -3.040808 8.045152 23.267027 2.945734 -0.476615 -10.171176 0.000000 0.000000 0.000000 -26.674816 8.890777 -10.335314 -46.821410 22.507344 -15.114918 -9.344990 -25.012886 2.876234 0.000000 0.000000 0.000000 19.460115 -1.903667 0.019483 52.117106 -10.881362 -12.140512 10.570360 29.715421 4.569136 0.000000 0.000000 0.000000 
-0.083700 0.898030 -0.359860 1.470614 3.832926 -11.149931 0.056291 -2.093354 -20.875210 -3.558502 0.311822 7.852319 2.886251 10.462707 15.216407 0.000000 0.000000 0.000000 3.324005 -0.787852 5.985891 -3.354569 2.736720 40.589235 -0.615568 -2.496230 2.132223 0.000000 0.000000 0.000000 -0.528524 -1.037306 24.307497 8.461941 -1.852057 -21.102565 -3.659544 4.802897 25.414534 3.415074 -1.344551 -9.224706 0.000000 0.000000 0.000000 -26.743362 10.187181 -10.418707 -47.624752 20.434918 -14.980695 -9.718994 -24.052404 3.001688 0.000000 0.000000 0.000000 17.982664 -2.159562 -0.503432 53.280005 -10.574811 -12.416359 12.117226 24.802684 3.933733 0.000000 0.000000 0.000000 
-0.099165 0.911981 -0.428097 0.926234 5.854557 -12.299955 0.908109 -1.930123 -20.190508 -5.314966 0.495968 18.519848 5.392922 13.367827 9.862127 0.000000 0.000000 0.000000 3.947419 -0.359248 2.785918 -2.000866 1.611265 39.897447 -0.271726 -2.113527 3.426183 0.000000 0.000000 0.000000 -0.741614 -1.241131 26.461102 8.591099 -1.739938 -22.125773 -2.794279 3.469391 26.417163 2.122630 -0.346750 -9.064367 0.000000 0.000000 0.000000 -27.471839 8.531380 -9.442421 -48.275749 18.577450 -14.650088 -9.327129 -24.276670 2.991069 0.000000 0.000000 0.000000 17.449195 -2.721347 -0.798879 53.333700 -12.212767 -13.241178 11.968562 22.127321 3.402257 0.000000 0.000000 0.000000 
-0.112834 0.928480 -0.492171 0.954018 7.073324 -11.779087 1.426203 -1.740444 -18.956312 -8.929494 1.437309 32.008147 7.133898 15.790164 7.403810 0.000000 0.000000 0.000000 3.760004 0.130351 -0.741957 -2.208466 1.443575 38.288960 0.334275 -1.056595 4.546480 0.000000 0.000000 0.000000 -1.530276 -1.193446 26.982102 9.154861 -1.776304 -23.006726 -3.547643 2.862823 26.839199 1.754535 -0.136107 -8.348463 0.000000 0.000000 0.000000 -27.979605 8.831230 -9.793044 -47.376110 15.196206 -13.102436 -10.824151 -23.438767 3.184134 0.000000 0.000000 0.000000 17.215663 -3.585768 -1.240105 53.043775 -15.685450 -14.570858 16.474039 20.672859 3.955789 0.000000 0.000000 0.000000 
-0.124015 0.940631 -0.554256 0.756119 8.940382 -11.322769 2.011499 -1.403888 -16.196003 -11.345743 2.092264 44.402870 6.138244 14.304464 8.135468 0.000000 0.000000 0.000000 3.883896 0.659009 -4.647156 -2.315749 1.137616 36.761315 0.295049 -2.054366 7.541868 0.000000 0.000000 0.000000 -1.527556 -1.349884 27.379905 8.380248 -1.285288 -25.040204 -3.638818 0.736550 27.956717 1.534449 0.026621 -9.647162 0.000000 0.000000 0.000000 -27.748558 10.096618 -10.151393 -47.404522 13.640394 -12.702204 -11.671450 -25.931781 3.822492 0.000000 0.000000 0.000000 14.835177 -4.663705 -1.905607 55.555897 -18.174184 -16.275695 19.130462 18.586340 3.965342 0.000000 0.000000 0.000000 
-0.132401 0.945956 -0.615683 0.510832 9.675214 -10.831150 2.364134 -0.689911 -8.904120 -11.886305 2.068276 51.625728 3.266165 9.664844 8.870951 0.000000 0.000000 0.000000 3.986030 1.197415 -8.888622 -2.479915 1.082986 35.803607 0.487032 -2.225843 9.677552 0.000000 0.000000 0.000000 0.023481 -1.633378 26.182413 7.478727 -0.952278 -25.501875 -4.991530 -0.657608 29.111437 0.805257 0.607011 -10.718078 0.000000 0.000000 0.000000 -29.449747 9.729581 -10.084634 -45.119956 10.706467 -11.104361 -11.832383 -26.878967 4.052896 0.000000 0.000000 0.000000 14.405041 -5.479724 -2.397913 56.498940 -20.671704 -17.738047 21.527210 18.308937 4.331486 0.000000 0.000000 0.000000 
-0.139351 0.944731 -0.677602 0.107749 8.609505 -9.981103 1.441268 -0.077392 -0.781373 -10.707178 1.708154 52.442730 0.860219 5.536010 8.888037 0.000000 0.000000 0.000000 4.203064 1.776627 -13.585963 -2.160297 1.115468 34.429299 0.534861 -2.907190 11.999996 0.000000 0.000000 0.000000 0.957937 -1.555117 23.756581 7.314752 -1.046767 -24.039946 -6.249892 -1.165784 28.804856 0.395831 0.891086 -11.586266 0.000000 0.000000 0.000000 -29.839346 10.128747 -10.138311 -44.254562 9.269500 -10.392687 -12.714443 -28.816838 4.634830 0.000000 0.000000 0.000000 14.345295 -5.512415 -2.576436 58.217552 -21.432668 -18.603420 20.862758 17.240423 3.925010 0.000000 0.000000 0.000000 
